# xmcd
#
# Track frame offsets:
#	150
#	16976
#	37587
#	72827
#	85827
#	100698
#	119056
#	136152
#	159071
#
# Disc length: 2452 seconds
#
# Revision: 32
# Processed by: cddbd v1.5.2PL0 Copyright (c) Steve Scherf et al.
# Submitted via: Jack! The Knife 20 Magnifico
#
DISCID=60099209
DTITLE=Black Sabbath - Mob Rules
DYEAR=1981
DGENRE=Metal
TTITLE0=Turn Up The Night
TTITLE1=Voodoo
TTITLE2=The Sign Of The Southern Cross
TTITLE3=E5150
TTITLE4=The Mob Rules
TTITLE5=Country Girl
TTITLE6=Slipping Away
TTITLE7=Falling Off The Edge Of The World
TTITLE8=Over And Over
EXTD=Martin Birch
EXTT0=Dio, Iommi, Butler
EXTT1=Dio, Iommi, Butler
EXTT2=Dio, Iommi, Butler
EXTT3=Dio, Iommi, Butler
EXTT4=Dio, Iommi, Butler
EXTT5=Dio, Iommi, Butler
EXTT6=Dio, Iommi, Butler
EXTT7=Dio, Iommi, Butler
EXTT8=Dio, Iommi, Butler
PLAYORDER=
